HIERARCHY
ROOT joint_Root
{
	OFFSET 0.0 0.0 0.0
	CHANNELS 6 Xposition Yposition Zposition Zrotation Xrotation Yrotation 
	JOINT Hips
	{
		OFFSET -17.1583 93.1646 452.98
		CHANNELS 6 Xposition Yposition Zposition Zrotation Xrotation Yrotation 
		JOINT Spine
		{
			OFFSET 15.7357 0.0 0.0
			CHANNELS 6 Xposition Yposition Zposition Zrotation Xrotation Yrotation 
			JOINT Chest
			{
				OFFSET 8.98455 -0.406207 0.0
				CHANNELS 6 Xposition Yposition Zposition Zrotation Xrotation Yrotation 
				JOINT Neck
				{
					OFFSET 16.3773 0.0 0.0
					CHANNELS 6 Xposition Yposition Zposition Zrotation Xrotation Yrotation 
					JOINT Head
					{
						OFFSET 6.45672 0.0 0.0
						CHANNELS 6 Xposition Yposition Zposition Zrotation Xrotation Yrotation 
						End Site
						{
							OFFSET 0.0 0.0 0.0
						}
					}
				}
				JOINT Shoulder_L
				{
					OFFSET 12.9942 -0.242716 4.98039
					CHANNELS 6 Xposition Yposition Zposition Zrotation Xrotation Yrotation 
					JOINT UpperArm_L
					{
						OFFSET 5.34809 0.0 0.0
						CHANNELS 6 Xposition Yposition Zposition Zrotation Xrotation Yrotation 
						JOINT LowerArm_L
						{
							OFFSET 24.3286 1.87007e-05 0.0
							CHANNELS 6 Xposition Yposition Zposition Zrotation Xrotation Yrotation 
							JOINT Hand_L
							{
								OFFSET 22.2916 0.0 0.0
								CHANNELS 6 Xposition Yposition Zposition Zrotation Xrotation Yrotation 
								End Site
								{
									OFFSET 0.0 0.0 0.0
								}
							}
						}
					}
				}
				JOINT Shoulder_R
				{
					OFFSET 12.9945 -0.242716 -4.98039
					CHANNELS 6 Xposition Yposition Zposition Zrotation Xrotation Yrotation 
					JOINT UpperArm_R
					{
						OFFSET -5.34813 0.0 0.0
						CHANNELS 6 Xposition Yposition Zposition Zrotation Xrotation Yrotation 
						JOINT LowerArm_R
						{
							OFFSET -24.3289 0.000322201 0.0
							CHANNELS 6 Xposition Yposition Zposition Zrotation Xrotation Yrotation 
							JOINT Hand_R
							{
								OFFSET -22.2915 -0.000108084 0.0
								CHANNELS 6 Xposition Yposition Zposition Zrotation Xrotation Yrotation 
								End Site
								{
									OFFSET 0.0 0.0 0.0
								}
							}
						}
					}
				}
			}
		}
		JOINT UpperLeg_L
		{
			OFFSET -2.19248 -6.46944 0.0
			CHANNELS 6 Xposition Yposition Zposition Zrotation Xrotation Yrotation 
			JOINT LowerLeg_L
			{
				OFFSET 39.0811 0.0 -1.23785e-05
				CHANNELS 6 Xposition Yposition Zposition Zrotation Xrotation Yrotation 
				JOINT Foot_L
				{
					OFFSET 40.9854 0.0 -1.26872e-05
					CHANNELS 6 Xposition Yposition Zposition Zrotation Xrotation Yrotation 
					JOINT Toes_L
					{
						OFFSET 11.7543 0.0 0.0
						CHANNELS 6 Xposition Yposition Zposition Zrotation Xrotation Yrotation 
						End Site
						{
							OFFSET 0.0 0.0 0.0
						}
					}
				}
			}
		}
		JOINT UpperLeg_R
		{
			OFFSET -2.19251 6.46944 0.0
			CHANNELS 6 Xposition Yposition Zposition Zrotation Xrotation Yrotation 
			JOINT LowerLeg_R
			{
				OFFSET -39.0811 -0.00228153 -0.0401928
				CHANNELS 6 Xposition Yposition Zposition Zrotation Xrotation Yrotation 
				JOINT Foot_R
				{
					OFFSET -40.9854 0.0 0.0
					CHANNELS 6 Xposition Yposition Zposition Zrotation Xrotation Yrotation 
					JOINT Toes_R
					{
						OFFSET -11.7543 0.0 0.0
						CHANNELS 6 Xposition Yposition Zposition Zrotation Xrotation Yrotation 
						End Site
						{
							OFFSET 0.0 0.0 0.0
						}
					}
				}
			}
		}
	}
}
MOTION
Frames:	6
Frame Time:	0.0333333
0.000000 0.000000 0.000000 0.000000 0.000000 -0.000000 -2.060670 92.000500 -2.266510 84.129400 0.871337 6.911960 15.735700 0.000005 -0.000001 78.288300 86.181000 -75.661000 8.984550 -0.406207 -0.000000 -0.241597 -1.733530 5.248210 16.377300 -0.000001 -0.000001 9.767260 2.807070 -2.951110 6.456720 -0.000001 -0.000000 -3.068210 2.940020 -1.698280 12.994200 -0.242716 4.980390 -93.142000 8.790120 -70.241400 5.348090 -0.000007 -0.000001 -73.123200 27.334800 0.957930 24.328600 0.000019 0.000005 11.093000 27.701300 -22.868500 22.291600 -0.000001 0.000005 -1.888990 4.985040 7.635930 12.994500 -0.242716 -4.980390 87.231700 7.078050 -68.574500 -5.348130 -0.000001 -0.000004 -70.267700 11.837200 -2.577120 -24.328900 0.000322 -0.000009 2.753910 6.705290 -22.397600 -22.291500 -0.000108 -0.000004 0.058901 5.270000 0.898249 -2.192480 -6.469440 -0.000000 -173.716000 6.285490 -2.647000 39.081100 -0.000007 -0.000012 0.380407 -0.687305 28.964400 40.985400 -0.000006 -0.000013 0.282647 2.876720 -75.347700 11.754300 -0.000000 0.000003 0.000148 0.165097 -9.880680 -2.192510 6.469440 -0.000001 -171.038000 7.825710 -175.559000 -39.081100 -0.002282 -0.040193 0.137539 -0.441396 16.912800 -40.985400 0.000008 0.000006 4.707200 1.321970 -70.953000 -11.754300 -0.000006 -0.000006 -0.010908 0.277970 -5.278310
0.000000 0.000000 0.000000 0.000000 0.000000 -0.000000 -2.058880 91.998100 -2.277970 84.136500 0.858399 6.886040 15.735700 0.000005 -0.000001 78.189200 86.178600 -75.569200 8.984550 -0.406207 -0.000000 -0.239470 -1.746870 5.233710 16.377300 -0.000001 -0.000001 9.712390 2.804460 -2.888500 6.456720 -0.000001 -0.000000 -3.089260 2.941510 -1.604800 12.994200 -0.242716 4.980390 -93.134500 8.754920 -70.212000 5.348090 -0.000007 -0.000001 -73.121600 27.427900 0.875687 24.328600 0.000019 0.000005 11.027100 27.529500 -22.860700 22.291600 -0.000001 0.000005 -1.880690 4.984150 7.654610 12.994500 -0.242716 -4.980390 87.209000 7.133440 -68.565800 -5.348130 -0.000001 -0.000004 -70.174400 10.915600 -2.381110 -24.328900 0.000322 -0.000009 3.027750 6.822650 -24.008200 -22.291500 -0.000108 -0.000004 -0.116494 5.240020 1.695090 -2.192480 -6.469440 -0.000000 -173.721000 6.259700 -2.693480 39.081100 -0.000007 -0.000012 0.380808 -0.687289 28.990500 40.985400 -0.000006 -0.000013 0.271439 2.838340 -75.385100 11.754300 -0.000000 0.000003 0.000058 0.166636 -9.818180 -2.192510 6.469440 -0.000001 -171.055000 7.910030 -175.602000 -39.081100 -0.002282 -0.040193 0.139247 -0.445975 16.949900 -40.985400 0.000008 0.000006 4.738910 1.392510 -71.017600 -11.754300 -0.000006 -0.000006 -0.011595 0.282864 -5.077960
0.000000 0.000000 0.000000 0.000000 0.000000 -0.000000 -2.077150 91.998500 -2.291920 84.090100 0.862642 6.907700 15.735700 0.000005 -0.000001 77.996700 86.156100 -75.346800 8.984550 -0.406207 -0.000000 -0.199340 -1.782500 5.293850 16.377300 -0.000001 -0.000001 9.671210 2.815340 -2.864710 6.456720 -0.000001 -0.000000 -3.177470 2.909620 -1.555760 12.994200 -0.242716 4.980390 -93.153600 8.809110 -70.212700 5.348090 -0.000007 -0.000001 -73.065300 27.375100 0.834638 24.328600 0.000019 0.000005 11.077700 27.476400 -22.993800 22.291600 -0.000001 0.000005 -1.954610 4.983550 7.667380 12.994500 -0.242716 -4.980390 87.217000 7.098230 -68.526300 -5.348130 -0.000001 -0.000004 -70.133100 9.468120 -2.055950 -24.328900 0.000322 -0.000009 3.832590 7.678720 -26.633900 -22.291500 -0.000108 -0.000004 -0.582685 5.217700 2.271630 -2.192480 -6.469440 -0.000000 -173.654000 6.269100 -2.685590 39.081100 -0.000007 -0.000012 0.379100 -0.683729 29.007400 40.985400 -0.000006 -0.000013 0.270048 2.893080 -75.369200 11.754300 -0.000000 0.000003 0.000128 0.165444 -9.866620 -2.192510 6.469440 -0.000001 -171.010000 7.892810 -175.586000 -39.081100 -0.002282 -0.040193 0.136502 -0.437683 16.923800 -40.985400 0.000008 0.000006 4.696630 1.398130 -70.946000 -11.754300 -0.000006 -0.000006 -0.011090 0.279279 -5.224740
0.000000 0.000000 0.000000 0.000000 0.000000 -0.000000 -2.072560 91.997700 -2.311630 84.102200 0.798300 6.884250 15.735700 0.000005 -0.000001 78.028600 86.154000 -75.375300 8.984550 -0.406207 -0.000000 -0.194404 -1.779300 5.300690 16.377300 -0.000001 -0.000001 9.609010 2.785310 -2.769580 6.456720 -0.000001 -0.000000 -3.293200 2.976860 -1.473640 12.994200 -0.242716 4.980390 -93.149200 8.777980 -70.174400 5.348090 -0.000007 -0.000001 -73.038900 27.379400 0.720786 24.328600 0.000019 0.000005 11.069200 27.413400 -23.021200 22.291600 -0.000001 0.000005 -1.906520 4.982950 7.679930 12.994500 -0.242716 -4.980390 87.218300 7.074740 -68.470700 -5.348130 -0.000001 -0.000004 -70.158700 7.318070 -1.549400 -24.328900 0.000322 -0.000009 4.636280 8.030470 -30.140800 -22.291500 -0.000108 -0.000004 -0.911127 5.198110 2.766580 -2.192480 -6.469440 -0.000000 -173.659000 6.195940 -2.721440 39.081100 -0.000007 -0.000012 0.378373 -0.682226 29.014300 40.985400 -0.000006 -0.000013 0.265279 2.869190 -75.339900 11.754300 -0.000000 0.000003 0.000143 0.165180 -9.877320 -2.192510 6.469440 -0.000001 -171.013000 7.862340 -175.643000 -39.081100 -0.002282 -0.040193 0.138812 -0.443763 16.978100 -40.985400 0.000008 0.000006 4.713350 1.423850 -71.000000 -11.754300 -0.000006 -0.000006 -0.011317 0.280893 -5.158660
0.000000 0.000000 0.000000 0.000000 0.000000 -0.000000 -2.087780 92.000300 -2.315950 84.052400 0.813531 6.855460 15.735700 0.000005 -0.000001 77.555900 86.140500 -74.860400 8.984550 -0.406207 -0.000000 -0.179000 -1.849680 5.385320 16.377300 -0.000001 -0.000001 9.553470 2.836770 -2.682510 6.456720 -0.000001 -0.000000 -3.498620 3.040900 -1.397950 12.994200 -0.242716 4.980390 -93.161600 8.810460 -70.169200 5.348090 -0.000007 -0.000001 -72.980100 27.349400 0.645964 24.328600 0.000019 0.000005 11.085700 27.342700 -23.102100 22.291600 -0.000001 0.000005 -1.941710 4.985460 7.627080 12.994500 -0.242716 -4.980390 87.261100 6.933270 -68.381600 -5.348130 -0.000001 -0.000004 -70.261800 5.008910 -1.015040 -24.328900 0.000322 -0.000009 5.530840 8.073960 -34.589100 -22.291500 -0.000108 -0.000004 -0.807836 5.170650 3.444800 -2.192480 -6.469440 -0.000000 -173.597000 6.232270 -2.768260 39.081100 -0.000007 -0.000012 0.381963 -0.688052 29.037200 40.985400 -0.000006 -0.000013 0.247314 2.870180 -75.374800 11.754300 -0.000000 0.000003 0.000004 0.167565 -9.780490 -2.192510 6.469440 -0.000001 -170.944000 7.776280 -175.671000 -39.081100 -0.002282 -0.040193 0.134710 -0.431041 16.951700 -40.985400 0.000008 0.000006 4.583930 1.368930 -70.932700 -11.754300 -0.000006 -0.000006 -0.011274 0.280588 -5.171140
0.000000 0.000000 0.000000 0.000000 0.000000 -0.000000 -2.099960 91.998600 -2.339750 84.068700 0.885720 6.849840 15.735700 0.000005 -0.000001 76.597800 86.119900 -73.886000 8.984550 -0.406207 -0.000000 -0.164089 -1.985800 5.417950 16.377300 -0.000001 -0.000001 9.508180 2.974060 -2.598430 6.456720 -0.000001 -0.000000 -3.755080 3.209680 -1.070850 12.994200 -0.242716 4.980390 -93.157500 8.794010 -70.159300 5.348090 -0.000007 -0.000001 -72.987500 27.366500 0.585753 24.328600 0.000019 0.000005 11.061500 27.266900 -23.108800 22.291600 -0.000001 0.000005 -1.815080 4.983050 7.677890 12.994500 -0.242716 -4.980390 87.330400 6.751330 -68.365300 -5.348130 -0.000001 -0.000004 -70.317900 2.722900 -0.315338 -24.328900 0.000322 -0.000009 6.821860 8.141390 -40.193900 -22.291500 -0.000108 -0.000004 -0.600119 5.138950 4.206330 -2.192480 -6.469440 -0.000000 -173.618000 6.329120 -2.805300 39.081100 -0.000007 -0.000012 0.378747 -0.681999 29.046400 40.985400 -0.000006 -0.000013 0.235889 2.845790 -75.348800 11.754300 -0.000000 0.000003 0.000001 0.167607 -9.778780 -2.192510 6.469440 -0.000001 -170.965000 7.878910 -175.694000 -39.081100 -0.002282 -0.040193 0.136731 -0.437318 16.964500 -40.985400 0.000008 0.000006 4.653400 1.403330 -70.971600 -11.754300 -0.000006 -0.000006 -0.011444 0.281797 -5.121640
